# File created by Blade
# Date/Time:  Tue Apr 07 20:49:15 2015
#---------------------------------------------------------
:version 1.10
:name HOM
:units
  mass 1.0
  length 1.000000
  angle deg
:documentation
     Acclaim Skeleton File
:root
   axis xyz
   order TX TY TZ RX RY RZ
   position 0.000000 0.000000 0.000000
   orientation 0 0 0
:bonedata
   begin
      id 1
      name Spine_dum
      direction 0.000000 1.000000 0.000000
      length 4.885285
      axis 0.0 0.0 0.0 xyz
   end
   begin
      id 2
      name LeftUpLeg_dum
      direction 1.000000 0.000000 0.000000
      length 2.672193
      axis 0.0 0.0 0.0 xyz
   end
   begin
      id 3
      name RightUpLeg_dum
      direction -1.000000 0.000000 0.000000
      length 2.672193
      axis 0.0 0.0 0.0 xyz
   end
   begin
      id 4
      name Spine
      direction 0.000000 1.000000 0.000000
      length 0.000000
      axis 0.0 0.0 0.0 xyz
      dof rx ry rz
   end
   begin
      id 5
      name Spine_dum1
      direction 0.000000 1.000000 0.000000
      length 16.494159
      axis 0.0 0.0 0.0 xyz
   end
   begin
      id 6
      name Spine_dum2
      direction 0.000000 1.000000 0.000000
      length 10.663448
      axis 0.0 0.0 0.0 xyz
   end
   begin
      id 7
      name Spine_dum3
      direction 0.000000 1.000000 0.000000
      length 10.663448
      axis 0.0 0.0 0.0 xyz
   end
   begin
      id 8
      name Head
      direction 0.000000 1.000000 0.000000
      length 4.527550
      axis 0.0 0.0 0.0 xyz
      dof rx ry rz
   end
   begin
      id 9
      name LeftShoulder
      direction 1.000000 0.000000 0.000000
      length 7.531907
      axis 0.0 0.0 -90.0 xyz
      dof rx ry rz
   end
   begin
      id 10
      name LeftArm
      direction 1.000000 0.000000 0.000000
      length 10.229199
      axis 0.0 0.0 -90.0 xyz
      dof rx ry rz
   end
   begin
      id 11
      name LeftForeArm
      direction 1.000000 0.000000 0.000000
      length 8.673495
      axis 0.0 0.0 -90.0 xyz
      dof ry rz rx
   end
   begin
      id 12
      name LeftHand
      direction 0.000000 0.000000 0.000000
      length 0.000000
      axis 0.0 0.0 -90.0 xyz
      dof rx ry rz
   end
   begin
      id 13
      name LeftHand_dum1
      direction 0.000000 0.000000 0.000000
      length 0.000000
      axis 0.0 0.0 -90.0 xyz
   end
   begin
      id 14
      name LeftHand_dum2
      direction 1.000000 0.000000 0.000000
      length 3.937000
      axis 0.0 0.0 -90.0 xyz
   end
   begin
      id 15
      name LeftHandThumb1
      direction 0.000000 0.000000 1.000000
      length 3.937000
      axis 0.0 0.0 -90.0 xyz
      dof rx rz ry
   end
   begin
      id 16
      name RightShoulder
      direction -1.000000 0.000000 0.000000
      length 7.531907
      axis 0.0 0.0 90.0 xyz
      dof rx ry rz
   end
   begin
      id 17
      name RightArm
      direction -1.000000 0.000000 0.000000
      length 10.229199
      axis 0.0 0.0 90.0 xyz
      dof rx ry rz
   end
   begin
      id 18
      name RightForeArm
      direction -1.000000 0.000000 0.000000
      length 8.673495
      axis 0.0 0.0 90.0 xyz
      dof ry rz rx
   end
   begin
      id 19
      name RightHand
      direction 0.000000 0.000000 0.000000
      length 0.000000
      axis 0.0 0.0 90.0 xyz
      dof rx ry rz
   end
   begin
      id 20
      name RightHand_dum1
      direction 0.000000 0.000000 0.000000
      length 0.000000
      axis 0.0 0.0 90.0 xyz
   end
   begin
      id 21
      name RightHand_dum2
      direction -1.000000 0.000000 0.000000
      length 3.937000
      axis 0.0 0.0 90.0 xyz
   end
   begin
      id 22
      name RightHandThumb1
      direction 0.000000 0.000000 1.000000
      length 3.937000
      axis 0.0 0.0 90.0 xyz
      dof rx rz ry
   end
   begin
      id 23
      name LeftUpLeg
      direction 0.000000 -1.000000 0.000000
      length 16.263388
      axis 0.0 0.0 0.0 xyz
      dof rx ry rz
   end
   begin
      id 24
      name LeftLeg
      direction 0.000000 -1.000000 0.000000
      length 14.328163
      axis 0.0 0.0 0.0 xyz
      dof rx ry rz
   end
   begin
      id 25
      name LeftFoot
      direction 0.000000 -0.258819 0.965926
      length 5.031290
      axis 15.0 0.0 0.0 xyz
      dof rx ry rz
   end
   begin
      id 26
      name LeftToeBase
      direction 0.000000 0.000000 1.000000
      length 2.952750
      axis 0.0 0.0 0.0 xyz
      dof rx ry rz
   end
   begin
      id 27
      name RightUpLeg
      direction 0.000000 -1.000000 0.000000
      length 16.263388
      axis 0.0 0.0 0.0 xyz
      dof rx ry rz
   end
   begin
      id 28
      name RightLeg
      direction 0.000000 -1.000000 0.000000
      length 14.328163
      axis 0.0 0.0 0.0 xyz
      dof rx ry rz
   end
   begin
      id 29
      name RightFoot
      direction 0.000000 -0.258819 0.965926
      length 5.031290
      axis 15.0 0.0 0.0 xyz
      dof rx ry rz
   end
   begin
      id 30
      name RightToeBase
      direction 0.000000 0.000000 1.000000
      length 2.952750
      axis 0.0 0.0 0.0 xyz
      dof rx ry rz
   end
:hierarchy
   begin
      root Spine_dum LeftUpLeg_dum RightUpLeg_dum
      Spine_dum Spine
      LeftUpLeg_dum LeftUpLeg
      RightUpLeg_dum RightUpLeg
      Spine Spine_dum1 Spine_dum2 Spine_dum3
      Spine_dum1 Head
      Spine_dum2 LeftShoulder
      Spine_dum3 RightShoulder
      LeftShoulder LeftArm
      LeftArm LeftForeArm
      LeftForeArm LeftHand
      LeftHand LeftHand_dum1 LeftHand_dum2
      LeftHand_dum1 LeftHandThumb1
      RightShoulder RightArm
      RightArm RightForeArm
      RightForeArm RightHand
      RightHand RightHand_dum1 RightHand_dum2
      RightHand_dum1 RightHandThumb1
      LeftUpLeg LeftLeg
      LeftLeg LeftFoot
      LeftFoot LeftToeBase
      RightUpLeg RightLeg
      RightLeg RightFoot
      RightFoot RightToeBase
   end

# File created by Blade
# Date/Time:  Tue Apr 07 20:49:23 2015
# Frame Rate: 120.000 fps
#------------------------------------------------------
:FULLY-SPECIFIED
:DEGREES
191
root 1.010707 32.893210 -5.565586 16.628555 86.309405 -4.502172
Spine -9.605773 -1.600712 -0.887052
Head 1.575511 -3.911697 3.127226
LeftShoulder -21.030321 45.866719 7.389582
LeftArm 49.140429 -3.779039 -90.080243
LeftForeArm 12.496812 -0.000000 32.151216
LeftHand 4.567916 -0.000000 11.197987
LeftHandThumb1 -26.253704 0.000000 33.147579
RightShoulder -6.498342 -6.463670 -17.010974
RightArm 7.614395 5.012219 86.218686
RightForeArm 13.072987 0.000000 12.026767
RightHand 6.898197 -0.000000 -0.876006
RightHandThumb1 -24.326973 -0.000000 -32.862282
LeftUpLeg -29.254382 -3.766754 2.200126
LeftLeg 12.007284 -0.000000 -0.000000
LeftFoot -3.184900 11.095030 -15.865947
LeftToeBase -11.604174 -0.000000 0.000000
RightUpLeg -15.933072 -18.234507 6.363051
RightLeg 6.975062 -0.000000 -0.000000
RightFoot -13.732424 -26.178277 16.747432
RightToeBase -8.138756 -0.000000 0.000000
192
root 1.078912 32.896379 -5.625940 14.213231 86.222731 -7.144247
Spine -9.685477 -1.636212 -0.896354
Head 1.433095 -3.795126 3.597955
LeftShoulder -20.924078 45.833900 7.702152
LeftArm 49.145042 -3.647097 -90.058777
LeftForeArm 12.313051 0.000000 32.113437
LeftHand 4.596333 -0.000000 11.145933
LeftHandThumb1 -26.253704 0.000000 33.147579
RightShoulder -6.568593 -6.549931 -16.767985
RightArm 7.484279 5.196350 86.197392
RightForeArm 13.153812 -0.000000 11.949979
RightHand 6.844571 -0.000000 -1.185905
RightHandThumb1 -24.326973 -0.000000 -32.862282
LeftUpLeg -29.225872 -3.593765 2.230157
LeftLeg 11.759073 -0.000000 -0.000000
LeftFoot -3.301679 10.935426 -15.915317
LeftToeBase -11.418646 -0.000000 0.000000
RightUpLeg -16.462998 -18.128274 6.413028
RightLeg 7.847363 -0.000000 -0.000000
RightFoot -14.091193 -26.079215 17.247096
RightToeBase -7.945120 -0.000000 0.000000
193
root 1.144196 32.900685 -5.691770 12.530324 86.101837 -9.047550
Spine -9.749189 -1.689287 -0.933862
Head 1.263361 -3.632265 4.039969
LeftShoulder -20.830211 45.807550 7.980145
LeftArm 49.144406 -3.547956 -90.036680
LeftForeArm 12.294975 -0.000000 32.124031
LeftHand 4.557769 0.000000 11.208843
LeftHandThumb1 -26.253704 0.000000 33.147579
RightShoulder -6.639952 -6.670519 -16.531669
RightArm 7.397822 5.345142 86.171700
RightForeArm 13.275328 0.000000 11.907824
RightHand 6.783293 -0.000000 -1.161120
RightHandThumb1 -24.326973 -0.000000 -32.862282
LeftUpLeg -29.225192 -3.325075 2.157695
LeftLeg 11.572242 -0.000000 -0.000000
LeftFoot -3.358903 10.754662 -15.837449
LeftToeBase -11.380563 -0.000000 0.000000
RightUpLeg -17.045777 -18.023022 6.403942
RightLeg 8.834838 -0.000000 -0.000000
RightFoot -14.376575 -25.866711 17.640723
RightToeBase -7.766005 -0.000000 0.000000
194
root 1.207321 32.905769 -5.753273 11.057327 86.002922 -10.750072
Spine -9.816410 -1.790875 -0.983907
Head 1.093769 -3.474905 4.493989
LeftShoulder -20.766785 45.796881 8.243792
LeftArm 49.184416 -3.377336 -89.847776
LeftForeArm 11.991923 -0.000000 32.097572
LeftHand 4.592832 0.000000 10.994916
LeftHandThumb1 -26.253704 0.000000 33.147579
RightShoulder -6.713296 -6.788143 -16.287989
RightArm 7.274700 5.493507 86.162281
RightForeArm 13.570361 -0.000000 11.917027
RightHand 6.689095 0.000000 -1.176243
RightHandThumb1 -24.326973 -0.000000 -32.862282
LeftUpLeg -29.246311 -2.991910 2.047759
LeftLeg 11.397859 -0.000000 -0.000000
LeftFoot -3.355443 10.518275 -15.674504
LeftToeBase -11.381797 -0.000000 0.000000
RightUpLeg -17.664208 -17.879795 6.380309
RightLeg 9.884759 -0.000000 -0.000000
RightFoot -14.430816 -25.714078 17.731167
RightToeBase -8.308159 -0.000000 0.000000
195
root 1.271386 32.910840 -5.819311 10.154090 85.898441 -11.849284
Spine -9.851083 -1.892062 -1.059309
Head 0.904823 -3.321129 4.906319
LeftShoulder -20.653064 45.792365 8.525280
LeftArm 49.234441 -3.308843 -89.833397
LeftForeArm 11.888982 0.000000 32.081635
LeftHand 4.786806 0.000000 10.811411
LeftHandThumb1 -26.253704 0.000000 33.147579
RightShoulder -6.820879 -6.864502 -16.063310
RightArm 7.113212 5.712599 86.172102
RightForeArm 13.756619 -0.000000 11.940176
RightHand 6.863546 -0.000000 -1.376236
RightHandThumb1 -24.326973 -0.000000 -32.862282
LeftUpLeg -29.262151 -2.859512 1.972161
LeftLeg 11.277636 -0.000000 -0.000000
LeftFoot -3.394800 10.467617 -15.544361
LeftToeBase -11.394368 -0.000000 0.000000
RightUpLeg -18.285426 -17.780962 6.286482
RightLeg 11.034120 -0.000000 -0.000000
RightFoot -14.604362 -25.488950 17.957692
RightToeBase -8.811779 -0.000000 0.000000
196
root 1.321396 32.917724 -5.895261 9.529732 85.646079 -12.648426
Spine -9.804445 -1.893885 -1.133116
Head 0.642620 -3.124720 5.259803
LeftShoulder -20.578848 45.726879 8.737676
LeftArm 49.290867 -3.222630 -89.752345
LeftForeArm 11.747543 -0.000000 32.064777
LeftHand 4.610366 -0.000000 11.057428
LeftHandThumb1 -26.253704 0.000000 33.147579
RightShoulder -6.895238 -6.890639 -15.886760
RightArm 6.968631 6.157709 86.229196
RightForeArm 13.580181 -0.000000 11.808213
RightHand 6.619211 0.000000 -1.333725
RightHandThumb1 -24.326973 -0.000000 -32.862282
LeftUpLeg -29.257206 -2.655875 1.854841
LeftLeg 11.124535 -0.000000 -0.000000
LeftFoot -3.393391 10.541384 -15.296103
LeftToeBase -11.543471 -0.000000 0.000000
RightUpLeg -18.953922 -17.453006 6.078235
RightLeg 12.360710 -0.000000 -0.000000
RightFoot -14.772291 -25.154655 18.264004
RightToeBase -8.316111 -0.000000 0.000000
197
root 1.386049 32.921753 -5.964010 8.962966 85.606446 -13.387109
Spine -9.833067 -2.142071 -1.177687
Head 0.502008 -2.875021 5.613866
LeftShoulder -20.558346 45.746946 8.922188
LeftArm 49.363144 -3.125673 -89.633038
LeftForeArm 11.480579 0.000000 32.054832
LeftHand 4.758796 -0.000000 10.874198
LeftHandThumb1 -26.253704 0.000000 33.147579
RightShoulder -6.954294 -7.052854 -15.701307
RightArm 6.849913 6.193519 86.221419
RightForeArm 13.967607 0.000000 11.818036
RightHand 6.362869 -0.000000 -1.341443
RightHandThumb1 -24.326973 -0.000000 -32.862282
LeftUpLeg -29.243806 -2.668064 1.776542
LeftLeg 10.965632 -0.000000 -0.000000
LeftFoot -3.388658 10.652537 -14.968761
LeftToeBase -11.589093 -0.000000 0.000000
RightUpLeg -19.578246 -17.397522 5.893183
RightLeg 13.671267 -0.000000 -0.000000
RightFoot -14.923330 -24.676574 18.531194
RightToeBase -8.430283 -0.000000 0.000000
198
root 1.451624 32.923199 -6.036789 8.501135 85.603143 -13.985919
Spine -9.828153 -2.402918 -1.190889
Head 0.364535 -2.638995 5.866355
LeftShoulder -20.484171 45.750429 9.101800
LeftArm 49.429061 -3.066730 -89.533180
LeftForeArm 11.386516 -0.000000 32.053465
LeftHand 4.697629 0.000000 11.042855
LeftHandThumb1 -26.253704 0.000000 33.147579
RightShoulder -7.062539 -7.140573 -15.598876
RightArm 6.663080 6.326538 86.280492
RightForeArm 14.243104 -0.000000 11.797264
RightHand 6.650459 -0.000000 -1.347796
RightHandThumb1 -24.326973 -0.000000 -32.862282
LeftUpLeg -29.139209 -2.954758 1.786232
LeftLeg 10.674057 -0.000000 -0.000000
LeftFoot -3.408448 10.991686 -14.698371
LeftToeBase -11.780191 -0.000000 0.000000
RightUpLeg -20.178904 -17.411348 5.654766
RightLeg 15.056107 -0.000000 -0.000000
RightFoot -15.031343 -23.922099 18.792030
RightToeBase -8.899371 -0.000000 0.000000
199
root 1.511373 32.925321 -6.108858 7.813896 85.595218 -14.848255
Spine -9.855583 -2.675860 -1.167818
Head 0.218853 -2.375826 6.102577
LeftShoulder -20.463324 45.756672 9.226942
LeftArm 49.528197 -3.027479 -89.439575
LeftForeArm 11.256172 -0.000000 32.058764
LeftHand 4.655559 -0.000000 10.824120
LeftHandThumb1 -26.253704 0.000000 33.147579
RightShoulder -7.190505 -7.248581 -15.495576
RightArm 6.515831 6.313807 86.309570
RightForeArm 14.841866 0.000000 11.735638
RightHand 6.334236 -0.000000 -1.097280
RightHandThumb1 -24.326973 -0.000000 -32.862282
LeftUpLeg -29.177549 -2.936287 1.654273
LeftLeg 10.577953 -0.000000 -0.000000
LeftFoot -3.365153 11.173073 -14.071073
LeftToeBase -11.900645 -0.000000 0.000000
RightUpLeg -20.818081 -17.323180 5.400788
RightLeg 16.469037 -0.000000 -0.000000
RightFoot -15.066484 -23.199192 19.080205
RightToeBase -9.123433 -0.000000 0.000000
200
root 1.574946 32.924609 -6.183051 6.863468 85.588989 -15.924430
Spine -9.854721 -2.995463 -1.086581
Head 0.109356 -2.077244 6.259352
LeftShoulder -20.437725 45.693865 9.323500
LeftArm 49.524214 -3.047098 -89.348057
LeftForeArm 11.007560 0.000000 32.074583
LeftHand 4.675504 -0.000000 10.741967
LeftHandThumb1 -26.253704 0.000000 33.147579
RightShoulder -7.268420 -7.353745 -15.442174
RightArm 6.353595 6.407717 86.357765
RightForeArm 15.089746 -0.000000 11.678012
RightHand 6.490572 0.000000 -0.981378
RightHandThumb1 -24.326973 -0.000000 -32.862282
LeftUpLeg -29.167939 -3.279130 1.693810
LeftLeg 10.507120 -0.000000 -0.000000
LeftFoot -3.490555 11.667445 -13.617885
LeftToeBase -11.791773 -0.000000 0.000000
RightUpLeg -21.397450 -17.242994 5.109256
RightLeg 17.931059 -0.000000 -0.000000
RightFoot -15.045817 -22.352563 19.400281
RightToeBase -9.382214 -0.000000 0.000000
